# AST/ASF file generated using VICON BodyLanguage
# -----------------------------------------------
:version 1.10
:name VICON
:units
  mass 1.0
  length 0.45
  angle deg
:documentation
   .ast/.asf automatically generated from VICON data using
   VICON BodyBuilder and BodyLanguage model FoxedUp or BRILLIANT.MOD
:root
   order TX TY TZ RX RY RZ
   axis XYZ
   position 0 0 0  
   orientation 0 0 0 
:bonedata
  begin
     id 1 
     name lhipjoint
     direction 0.62366 -0.717238 0.310833 
     length 2.53602 
     axis 0 0 0  XYZ
  end
  begin
     id 2 
     name lfemur
     direction 0.34202 -0.939693 0  
     length 7.40817  
     axis 0 0 20  XYZ
    dof rx ry rz
    limits (-160.0 20.0)
           (-70.0 70.0)
           (-60.0 70.0)
  end
  begin
     id 3 
     name ltibia
     direction 0.34202 -0.939693 0   
     length 7.7045   
     axis 0 0 20   XYZ
    dof rx
    limits (-10.0 170.0)
  end
  begin
     id 4 
     name lfoot
     direction 0.0673888 -0.185149 0.980397   
     length 2.09456   
     axis -90 7.62852e-016 20   XYZ
    dof rx rz
    limits (-45.0 90.0)
           (-70.0 20.0)
  end
  begin
     id 5 
     name ltoes
     direction 1.53575e-011 -4.21994e-011 1   
     length 1.05543   
     axis -90 7.62852e-016 20   XYZ
    dof rx
    limits (-90.0 20.0)
  end
  begin
     id 6 
     name rhipjoint
     direction -0.489018 -0.800347 0.346851   
     length 2.27268  
     axis 0 0 0  XYZ 
  end
  begin
     id 7 
     name rfemur
     direction -0.34202 -0.939693 0   
     length 7.55487   
     axis 0 0 -20   XYZ
    dof rx ry rz
    limits (-160.0 20.0)
           (-70.0 70.0)
           (-70.0 60.0)
  end
  begin
     id 8 
     name rtibia
     direction -0.34202 -0.939693 0   
     length 7.78969   
     axis 0 0 -20   XYZ
    dof rx
    limits (-10.0 170.0)
 end
 begin
     id 9 
     name rfoot
     direction -0.0859318 -0.236096 0.967923   
     length 2.19143  
     axis -90 -7.62852e-016 -20   XYZ
    dof rx rz
    limits (-45.0 90.0)
           (-20.0 70.0)
  end
  begin
     id 10 
     name rtoes
     direction -1.53538e-011 -4.21989e-011 1   
     length 1.09845   
     axis -90 -7.62852e-016 -20   XYZ
    dof rx
    limits (-90.0 20.0)
  end
  begin
     id 11 
     name lowerback
     direction -0.00762546 0.998978 -0.0445553   
     length 1.98161   
     axis 0 0 0   XYZ
    dof rx ry rz
    limits (-20.0 45.0)
           (-30.0 30.0)
           (-30.0 30.0)
  end
  begin
     id 12 
     name upperback
     direction 0.0422361 0.998867 -0.0219156   
     length 1.97558   
     axis 0 0 0   XYZ
    dof rx ry rz
    limits (-20.0 45.0)
           (-30.0 30.0)
           (-30.0 30.0)
  end
  begin
     id 13 
     name thorax
     direction 0.0442465 0.999021 7.47603e-005   
     length 1.97799   
     axis 0 0 0   XYZ
    dof rx ry rz
    limits (-20.0 45.0)
           (-30.0 30.0)
           (-30.0 30.0)
  end
  begin
     id 14 
     name lowerneck
     direction 0.00312169 0.984641 0.174564   
     length 1.78995   
     axis 0 0 0   XYZ
    dof rx ry rz
    limits (-20.0 45.0)
           (-30.0 30.0)
           (-30.0 30.0)
  end
  begin
     id 15 
     name upperneck
     direction -0.0383028 0.985255 -0.166749   
     length 1.83053   
     axis 0 0 0   XYZ
    dof rx ry rz
    limits (-20.0 45.0)
           (-30.0 30.0)
           (-30.0 30.0)
  end
  begin
     id 16
     name head
     direction -0.0129546 0.997059 -0.0755386  
     length 1.84088  
     axis 0 0 0   XYZ
    dof rx ry rz
    limits (-20.0 45.0)
           (-30.0 30.0)
           (-30.0 30.0)
  end
  begin
     id 17 
     name lclavicle
     direction 0.912857 0.370519 -0.171488  
     length 3.51279  
     axis 0 0 0   XYZ
    dof ry rz
    limits (-20.0 10.0)
           (0.0 20.0)
  end
  begin
     id 18 
     name lhumerus
     direction 1 -4.48962e-011 3.64361e-027   
     length 4.95663   
     axis 180 -30 -90   XYZ
    dof rx ry rz
    limits (-60.0 90.0)
           (-90.0 90.0)
           (-90.0 90.0)
  end
  begin
     id 19
     name lradius
     direction 1 -4.48974e-011 5.97202e-027   
     length 3.38177   
     axis 180 -30 -90   XYZ
    dof rx
    limits (-10.0 170.0)
  end
  begin
     id 20
     name lwrist
     direction 1 -4.4896e-011 9.83288e-027   
     length 1.69088   
     axis -9.31221e-015 90 90   XYZ
    dof ry
    limits (-180.0 0.0)
 end
  begin
     id 21 
     name lhand
     direction 1 -4.4902e-011 1.96551e-026   
     length 0.662909   
     axis -1.25475e-014 90 90   XYZ
    dof rx rz
    limits (-90.0 90.0)
           (-45.0 45.0)
  end
  begin
     id 22 
     name lfingers
     direction 1 -4.48971e-011 3.93277e-026   
     length 0.534454   
     axis -2.50945e-014 90 90   XYZ
    dof rx
    limits (0.0 90.0)
  end
  begin
     id 23
     name lthumb
     direction 0.707107 -6.34933e-011 0.707107   
     length 0.767373   
     axis -90 45 -4.80359e-014   XYZ
    dof rx rz
    limits (-45.0 45.0)
           (-45.0 45.0)
  end
  begin
     id 24 
     name rclavicle
     direction -0.900919 0.395364 -0.178976   
     length 3.40627  
     axis 0 0 0   XYZ 
    dof ry rz
    limits (-10.0 20.0)
           (-20.0 0.0)
  end
  begin
     id 25 
     name rhumerus
     direction -1 -4.48969e-011 1.03875e-027  
     length 5.08365   
     axis 180 30 90   XYZ
    dof rx ry rz
    limits (-90.0 60.0)
           (-90.0 90.0)
           (-90.0 90.0)
  end
  begin
     id 26 
     name rradius
     direction -1 -4.48951e-011 5.02733e-027   
     length 3.35984   
     axis 180 30 90   XYZ
    dof rx
    limits (-10.0 170.0)
  end
  begin
     id 27 
     name rwrist
     direction -1 -4.49011e-011 9.82828e-027   
     length 1.67992   
     axis -9.31221e-015 -90 -90   XYZ
    dof ry
    limits (-180.0 0.0)
  end
  begin
     id 28
     name rhand
     direction -1 -4.48894e-011 1.96774e-026   
     length 0.820764   
     axis -1.25475e-014 -90 -90   XYZ
    dof rx rz
    limits (-90.0 90.0)
           (-45.0 45.0)
  end
  begin
     id 29
     name rfingers
     direction -1 -4.49095e-011 3.92833e-026   
     length 0.661721   
     axis -2.50945e-014 -90 -90   XYZ
    dof rx
    limits (0.0 90.0)
  end
  begin
     id 30
     name rthumb
     direction -0.707107 -6.34881e-011 0.707107   
     length 0.950103   
     axis -90 -45 4.80359e-014   XYZ
    dof rx rz
    limits (-45.0 45.0)
           (-45.0 45.0)
  end
:hierarchy
  begin
    root lhipjoint rhipjoint lowerback
    lhipjoint lfemur
    lfemur ltibia
    ltibia lfoot
    lfoot ltoes
    rhipjoint rfemur
    rfemur rtibia
    rtibia rfoot
    rfoot rtoes
    lowerback upperback
    upperback thorax
    thorax lowerneck lclavicle rclavicle
    lowerneck upperneck
    upperneck head
    lclavicle lhumerus
    lhumerus lradius
    lradius lwrist
    lwrist lhand lthumb
    lhand lfingers
    rclavicle rhumerus
    rhumerus rradius
    rradius rwrist
    rwrist rhand rthumb
    rhand rfingers
  end

#!OML:ASF I:\golf\golf\golf 2\Subject 1\2002-09-07\Subject1.ASF
:FULLY-SPECIFIED
:DEGREES
62
root -6.65969 17.6898 -0.656195 -105.014 86.9259 -119.385
lowerback 4.52081 2.68058 -1.57985
upperback 4.03076 3.65081 4.7474
thorax 1.21977 1.80681 5.6719
lowerneck -14.9392 -2.54692 1.0816
upperneck 39.4089 -0.0982255 -5.1516
head 16.7504 0.0182695 -2.33044
rclavicle 7.15625e-015 9.54166e-014
rhumerus -6.36635 -3.09654 -101.673
rradius 23.2634
rwrist -45.5543
rhand -15.3245 -5.59485
rfingers 7.12502
rthumb 10.8518 -35.2945
lclavicle 7.15625e-015 9.54166e-014
lhumerus -9.83915 -48.3114 110.349
lradius 24.0675
lwrist 30.7409
lhand -12.7377 70.7434
lfingers 7.12502
lthumb -166.654 79.704
rfemur -30.4437 -5.43749 13.0374
rtibia 33.5051
rfoot -10.9722 -6.91365
rtoes -6.87366
lfemur -30.5113 7.71382 -10.8381
ltibia 33.0446
lfoot -13.2211 -4.57066
ltoes -16.5736
63
root -6.66016 17.6873 -0.654541 -104.152 86.9647 -118.533
lowerback 4.46052 2.6772 -1.54014
upperback 4.06564 3.64534 4.69648
thorax 1.29546 1.80298 5.60061
lowerneck -14.9662 -2.52723 1.06816
upperneck 39.3902 -0.0825607 -5.11964
head 16.7483 0.0248065 -2.31119
rclavicle -2.66371e-014 -3.65764e-014
rhumerus -6.43113 -2.94154 -101.842
rradius 23.5166
rwrist -45.8889
rhand -15.8401 -5.48286
rfingers 7.12502
rthumb 10.3544 -35.2079
lclavicle -2.66371e-014 -3.65764e-014
lhumerus -9.62495 -48.4342 110.07
lradius 23.9202
lwrist 30.1647
lhand -12.3605 70.5499
lfingers 7.12502
lthumb -166.29 79.9217
rfemur -30.5212 -5.38388 13.0096
rtibia 33.6034
rfoot -11.2136 -7.07227
rtoes -12.4561
lfemur -30.5031 7.86938 -10.8892
ltibia 33.0283
lfoot -13.2652 -4.6167
ltoes -17.1362
64
root -6.66016 17.6872 -0.652383 -102.993 87.0598 -117.385
lowerback 4.39608 2.70729 -1.5726
upperback 4.09243 3.68183 4.63798
thorax 1.35688 1.81883 5.56041
lowerneck -14.946 -2.52784 1.0139
upperneck 39.3618 -0.105158 -5.03214
head 16.7272 0.0181798 -2.26504
rclavicle 1.03368e-014 3.33958e-014
rhumerus -6.57608 -2.77418 -101.945
rradius 23.9329
rwrist -46.3832
rhand -16.5108 -5.37028
rfingers 7.12502
rthumb 9.70736 -35.1266
lclavicle 1.03368e-014 3.33958e-014
lhumerus -9.47945 -48.6376 109.878
lradius 23.745
lwrist 29.5502
lhand -11.914 70.2907
lfingers 7.12502
lthumb -165.86 80.2105
rfemur -30.6135 -5.29855 12.9218
rtibia 33.7182
rfoot -11.4883 -7.06742
rtoes -13.7433
lfemur -30.4934 8.06881 -10.9874
ltibia 33.0134
lfoot -13.2611 -4.79144
ltoes -17.066
65
root -6.66033 17.6864 -0.646827 -100.125 87.1362 -114.502
lowerback 4.38911 2.80273 -1.62202
upperback 4.1078 3.80628 4.60164
thorax 1.3626 1.87974 5.54569
lowerneck -14.9177 -2.56728 0.978436
upperneck 39.3535 -0.181374 -4.96085
head 16.7118 -0.00798604 -2.23925
rclavicle -1.19271e-014 -1.27222e-014
rhumerus -6.76111 -2.48491 -101.993
rradius 24.4105
rwrist -47.1246
rhand -17.1822 -5.31259
rfingers 7.12502
rthumb 9.05955 -35.098
lclavicle -1.19271e-014 -1.27222e-014
lhumerus -9.45869 -49.1804 109.766
lradius 23.6775
lwrist 29.2533
lhand -11.3909 69.9919
lfingers 7.12502
lthumb -165.356 80.5452
rfemur -30.7105 -5.19828 12.9163
rtibia 33.8507
rfoot -11.7443 -7.01954
rtoes -14.9328
lfemur -30.4413 8.2805 -11.0074
ltibia 33.0113
lfoot -13.2616 -4.89275
ltoes -17.1709
66
root -6.66234 17.6846 -0.640347 -96.417 87.1392 -110.751
lowerback 4.46001 2.88936 -1.60626
upperback 4.11453 3.9223 4.57895
thorax 1.31998 1.93916 5.50388
lowerneck -14.9628 -2.58831 0.9963
upperneck 39.4188 -0.210559 -4.95862
head 16.7567 -0.0149597 -2.24943
rclavicle 4.92986e-014 5.96354e-014
rhumerus -7.00529 -1.92565 -102.068
rradius 24.9701
rwrist -48.1289
rhand -17.7739 -5.31344
rfingers 7.12502
rthumb 8.48852 -35.1228
lclavicle 4.92986e-014 5.96354e-014
lhumerus -9.50709 -50.0725 109.634
lradius 23.7553
lwrist 29.7554
lhand -11.4239 69.7914
lfingers 7.12502
lthumb -165.388 80.7433
rfemur -30.8182 -5.17856 13.0277
rtibia 34.0001
rfoot -11.5679 -6.7518
rtoes -12.417
lfemur -30.3674 8.49513 -10.9455
ltibia 33.0265
lfoot -13.2929 -4.85035
ltoes -17.9442
67
root -6.66596 17.6827 -0.634721 -93.4662 87.0774 -107.779
lowerback 4.52426 2.94262 -1.53208
upperback 4.11488 3.99621 4.57244
thorax 1.28174 1.97877 5.44787
lowerneck -15.0072 -2.60813 0.961843
upperneck 39.4707 -0.238402 -4.92015
head 16.7953 -0.0252973 -2.23347
rclavicle -5.56597e-015 1.59028e-014
rhumerus -7.33702 -1.32594 -102.109
rradius 25.663
rwrist -49.0385
rhand -18.3359 -5.33506
rfingers 7.12502
rthumb 7.94619 -35.1657
lclavicle -5.56597e-015 1.59028e-014
lhumerus -9.59136 -51.4056 109.478
lradius 23.9581
lwrist 31.0055
lhand -11.9096 69.6336
lfingers 7.12502
lthumb -165.856 80.8678
rfemur -30.9602 -5.18215 13.2007
rtibia 34.166
rfoot -11.151 -6.62451
rtoes -12.1421
lfemur -30.332 8.71298 -10.833
ltibia 33.0539
lfoot -13.3227 -4.9109
ltoes -17.9831
68
root -6.67057 17.6803 -0.630066 -90.8517 87.0307 -105.155
lowerback 4.59845 2.99553 -1.45846
upperback 4.10788 4.06956 4.55653
thorax 1.23125 2.01828 5.38134
lowerneck -15.0013 -2.64519 0.859773
upperneck 39.4625 -0.30685 -4.81155
head 16.7875 -0.0544849 -2.17832
rclavicle 3.29983e-014 3.26007e-014
rhumerus -7.7013 -0.795732 -102.156
rradius 26.4393
rwrist -49.9764
rhand -19.4455 -5.39494
rfingers 7.12502
rthumb 6.87511 -35.2633
lclavicle 3.29983e-014 3.26007e-014
lhumerus -9.43232 -52.0638 109.187
lradius 23.863
lwrist 30.7224
lhand -10.8528 69.0951
lfingers 7.12502
lthumb -164.838 81.4803
rfemur -31.1169 -5.18615 13.352
rtibia 34.3409
rfoot -10.6653 -5.82883
rtoes 8.0399
lfemur -30.3135 8.87933 -10.7282
ltibia 33.084
lfoot -13.3246 -5.0315
ltoes -17.3142
69
root -6.67504 17.6793 -0.623478 -86.9751 86.9974 -101.243
lowerback 4.67896 3.07157 -1.36079
upperback 4.12003 4.17292 4.47874
thorax 1.2002 2.07269 5.23529
lowerneck -14.9872 -2.6714 0.805809
upperneck 39.4278 -0.389192 -4.68095
head 16.7618 -0.0805778 -2.12373
rclavicle -5.96354e-015 -7.95139e-015
rhumerus -7.97861 -0.482223 -102.351
rradius 27.1594
rwrist -50.8497
rhand -20.7419 -5.50042
rfingers 7.12502
rthumb 5.62359 -35.4058
lclavicle -5.96354e-015 -7.95139e-015
lhumerus -9.00393 -51.9579 108.657
lradius 23.4156
lwrist 28.6494
lhand -8.13097 68.0935
lfingers 7.12502
lthumb -162.217 82.6996
rfemur -31.255 -5.1518 13.495
rtibia 34.5116
rfoot -10.9293 -6.09304
rtoes -2.31004
lfemur -30.257 9.02885 -10.6268
ltibia 33.1128
lfoot -13.3252 -4.98742
ltoes -17.4562
70
root -6.67862 17.6788 -0.61201 -81.6773 86.9031 -95.8739
lowerback 4.75892 3.14105 -1.28143
upperback 4.17187 4.26727 4.40816
thorax 1.21038 2.12137 5.10938
lowerneck -15.0299 -2.65028 0.767838
upperneck 39.402 -0.395158 -4.57939
head 16.7593 -0.0785766 -2.07326
rclavicle 3.81667e-014 4.05521e-014
rhumerus -8.22758 -0.103493 -102.585
rradius 27.8199
rwrist -51.4755
rhand -21.4473 -5.68664
rfingers 7.12502
rthumb 4.94245 -35.609
lclavicle 3.81667e-014 4.05521e-014
lhumerus -8.63736 -52.47 108.032
lradius 23.1953
lwrist 27.5784
lhand -6.20807 67.3461
lfingers 7.12502
lthumb -160.368 83.6252
rfemur -31.3404 -4.94338 13.6648
rtibia 34.6589
rfoot -11.383 -5.05043
rtoes 21.4738
lfemur -30.1345 9.25791 -10.4599
ltibia 33.1373
lfoot -13.3502 -4.87758
ltoes -18.1289
71
root -6.68301 17.6759 -0.598217 -75.411 86.8318 -89.5472
lowerback 4.86398 3.21747 -1.37838
upperback 4.20612 4.36552 4.3701
thorax 1.17383 2.169 5.11422
lowerneck -15.0988 -2.59747 0.70362
upperneck 39.4142 -0.325803 -4.50761
head 16.7882 -0.052558 -2.01946
rclavicle -3.18055e-015 -2.54444e-014
rhumerus -8.5501 0.576647 -102.752
rradius 28.4984
rwrist -52.4869
rhand -22.1136 -5.81253
rfingers 7.12502
rthumb 4.29911 -35.7489
lclavicle -3.18055e-015 -2.54444e-014
lhumerus -8.45985 -53.7891 107.501
lradius 23.3313
lwrist 27.9851
lhand -5.42238 67.0716
lfingers 7.12502
lthumb -159.612 83.9786
rfemur -31.4472 -4.67551 13.7576
rtibia 34.7878
rfoot -11.4445 -4.8058
rtoes 23.0422
lfemur -29.9972 9.52706 -10.3489
ltibia 33.1402
lfoot -13.3494 -4.75508
ltoes -18.4037
72
root -6.68826 17.6734 -0.582536 -68.9903 86.7568 -83.1069
lowerback 4.95134 3.31587 -1.55758
upperback 4.2089 4.48924 4.33016
thorax 1.10607 2.22811 5.16144
lowerneck -15.0923 -2.55097 0.66433
upperneck 39.3767 -0.266788 -4.46325
head 16.7698 -0.0306948 -1.98122
rclavicle -9.54166e-015 1.27222e-014
rhumerus -8.82285 1.10839 -102.897
rradius 29.0823
rwrist -53.6128
rhand -22.9033 -5.84451
rfingers 7.12502
rthumb 3.53651 -35.7949
lclavicle -9.54166e-015 1.27222e-014
lhumerus -8.35264 -55.4692 107.011
lradius 23.5825
lwrist 28.6357
lhand -4.80098 66.725
lfingers 7.12502
lthumb -159.015 84.3902
rfemur -31.6141 -4.48944 13.839
rtibia 34.9154
rfoot -11.2381 -4.60365
rtoes 22.2222
lfemur -29.887 9.7767 -10.2692
ltibia 33.1228
lfoot -13.2917 -4.64334
ltoes -18.2162
73
root -6.69178 17.6731 -0.560253 -62.1112 86.6382 -76.161
lowerback 5.03196 3.43718 -1.83328
upperback 4.2463 4.63991 4.30101
thorax 1.0667 2.29814 5.27443
lowerneck -15.0537 -2.51856 0.650295
upperneck 39.2909 -0.22368 -4.46903
head 16.7159 -0.0195964 -1.971
rclavicle -3.57812e-015 9.62118e-014
rhumerus -8.93741 1.11549 -103.011
rradius 29.4119
rwrist -53.9578
rhand -23.2848 -5.88792
rfingers 7.12502
rthumb 3.1681 -35.8441
lclavicle -3.57812e-015 9.62118e-014
lhumerus -8.21697 -57.2077 106.501
lradius 23.8316
lwrist 29.1451
lhand -4.27644 66.4004
lfingers 7.12502
lthumb -158.512 84.7715
rfemur -31.7173 -4.24954 13.919
rtibia 35.0522
rfoot -11.4255 -4.30032
rtoes 23.8463
lfemur -29.712 10.1123 -10.1929
ltibia 33.0902
lfoot -13.2575 -4.53912
ltoes -18.59
74
root -6.69397 17.6723 -0.532193 -54.1408 86.5009 -68.105
lowerback 5.10136 3.57689 -2.28532
upperback 4.28879 4.80766 4.26689
thorax 1.02286 2.37291 5.4811
lowerneck -15.024 -2.48025 0.631447
upperneck 39.2341 -0.171585 -4.46197
head 16.6806 -0.00303576 -1.9536
rclavicle 2.42517e-014 1.59028e-014
rhumerus -9.0999 1.22985 -103.116
rradius 29.7632
rwrist -54.3958
rhand -23.4526 -5.87214
rfingers 7.12502
rthumb 3.00599 -35.8307
lclavicle 2.42517e-014 1.59028e-014
lhumerus -8.04319 -58.3926 106.011
lradius 23.9251
lwrist 29.0598
lhand -3.41185 65.9906
lfingers 7.12502
lthumb -157.681 85.2784
rfemur -31.803 -3.93962 13.9213
rtibia 35.1965
rfoot -11.3945 -4.02201
rtoes 23.2915
lfemur -29.463 10.4596 -10.1665
ltibia 33.0457
lfoot -13.2772 -4.33683
ltoes -19.491
75
root -6.69725 17.6711 -0.505498 -47.5839 86.2792 -61.5012
lowerback 5.14094 3.67698 -2.67963
upperback 4.31442 4.92446 4.23537
thorax 0.986364 2.42337 5.66187
lowerneck -15.0338 -2.40638 0.606337
upperneck 39.2323 -0.0642745 -4.43653
head 16.6876 0.0385315 -1.91932
rclavicle -8.74653e-015 -1.27222e-014
rhumerus -9.37464 1.86615 -103.249
rradius 30.3174
rwrist -55.5642
rhand -24.0057 -5.79744
rfingers 7.12502
rthumb 2.47181 -35.7629
lclavicle -8.74653e-015 -1.27222e-014
lhumerus -7.75186 -59.2187 105.413
lradius 23.8936
lwrist 28.504
lhand -2.07602 64.8009
lfingers 7.12502
lthumb -156.4 86.6274
rfemur -31.9475 -3.80945 14.012
rtibia 35.332
rfoot -11.4622 -3.60603
rtoes 22.7865
lfemur -29.2349 10.6947 -10.0666
ltibia 32.9984
lfoot -13.2459 -4.10938
ltoes -19.7995
